<?xml version="1.0" encoding="UTF-8" standalone="no"?>
<svg width="208px" height="85px" viewBox="0 0 208 85" version="1.1" xmlns="http://www.w3.org/2000/svg" xmlns:xlink="http://www.w3.org/1999/xlink" xmlns:sketch="http://www.bohemiancoding.com/sketch/ns">
    <!-- Generator: Sketch 3.3 (11970) - http://www.bohemiancoding.com/sketch -->
    <title>logo 2</title>
    <desc>Created with Sketch.</desc>
    <defs></defs>
    <g id="Homepage" stroke="none" stroke-width="1" fill="none" fill-rule="evenodd" sketch:type="MSPage">
        <g id="Desktop-HD" sketch:type="MSArtboardGroup" transform="translate(-118.000000, -121.000000)" fill="#5346DC">
            <g id="logo-2" sketch:type="MSLayerGroup" transform="translate(118.000000, 121.000000)">
                <path d="M34.9236821,27 C34.8324154,27.1126453 33.0983478,29.5007267 28.808812,34.4571221 C24.5192762,39.4135174 8,57.346657 8,57.346657 L12.2210858,58 L32.3225806,35.71875 L37,28.4193314 L34.9236821,27 L34.9236821,27 Z" id="Shape" sketch:type="MSShapeGroup"></path>
                <path d="M34.9637346,27 C34.8742284,27.1096181 33.1736111,29.4335219 28.966821,34.2567185 C24.7824074,39.0799151 8,56.5091938 8,56.5091938 C8,56.5091938 9.79012346,57.4957567 12.0054012,58 C12.3634259,57.6053748 32.4128086,35.4844413 32.4128086,35.4844413 L37,28.3811881 L34.9637346,27 L34.9637346,27 Z" id="Shape" sketch:type="MSShapeGroup"></path>
                <path d="M22.0903413,35.9548852 C21.7049028,36.683929 21.52352,37.8769098 19.7550374,38.1420166 C17.9865548,38.4071234 16.4901465,37.8327253 16.4901465,37.8327253 C16.4901465,37.8327253 17.1930049,36.5071911 17.7598263,35.1595647 C17.7598263,35.1595647 24.9697937,16.602086 22.3850884,12.868498 C22.135687,12.49293 21.5688657,13.0231436 20.7299701,14.2603089 C19.8684017,15.4974741 9.64294465,30.9399475 4.76828111,41.9418813 C3.49860131,44.813872 3.09048994,45.5429158 5.65252241,44.7034109 C14.2001882,41.8976968 21.2061,37.5013417 24.6977195,41.9418813 C26.3981835,44.1069205 28.0759747,50.5799458 23.3146754,55.175131 C17.3063692,60.9853892 10.9352973,58.908719 7.39833214,57.14134 C7.39833214,57.14134 12.9078356,57.0308789 15.4925409,55.9041748 C24.2442624,52.0822179 23.2466569,41.4558521 20.117803,42.2953571 C16.9889492,43.1348621 8.03317204,46.2277752 8.03317204,46.2277752 C8.03317204,46.2277752 1.04993311,49.4090572 0.00698184496,43.6429835 C-0.355783814,41.6546822 13.5200026,15.762581 17.8278448,13.0231436 C18.5987219,12.5371144 21.7502485,11.4325026 22.6344898,11.2115802 C23.5187311,10.9906579 26.5342206,10.3278908 26.8969863,13.4870806 C27.5771719,20.998441 24.765738,30.7190251 22.0903413,35.9548852 L22.0903413,35.9548852 Z" id="Shape" sketch:type="MSShapeGroup"></path>
                <path d="M22.4695752,35.7533015 C22.0931267,36.4790073 21.9159744,37.6665258 20.1887402,37.9304188 C18.4615059,38.1943118 17,37.6225437 17,37.6225437 C17,37.6225437 17.6864649,36.3030786 18.2400656,34.9616224 C18.2400656,34.9616224 21.3845177,26.7149658 22.7131595,20.1176405 C23.3774804,16.8409689 27.2526854,17.7865856 26.9869571,20.1176405 C26.2783482,25.98926 24.3518176,32.0148171 22.4695752,35.7533015 L22.4695752,35.7533015 Z" id="Shape" sketch:type="MSShapeGroup"></path>
                <path d="M46,36.9079859 C47.6781609,40.4524814 61.4022989,39.8807886 66,32.1743693 C64.9425287,30.207746 60.7126437,31.3053962 60.7126437,31.3053962 C60.7126437,31.3053962 58.183908,37.8455621 50.7816092,35.3758491 C47.2413793,34.9184949 46,36.9079859 46,36.9079859 L46,36.9079859 Z" id="Shape" sketch:type="MSShapeGroup"></path>
                <path d="M60.5094005,31.5104341 C58.7709493,32.9588335 54.4025336,41.4956115 56.6090293,45.9285914 C60.0190681,52.7975156 67.5746444,46.4552821 69.2239443,43.2293017 C70.8732441,40.0033213 74.3278586,32.9588335 74.7736153,32.2785247 C75.219372,31.5762705 75.9994463,30.0400893 75.9994463,30.0400893 C75.9994463,30.0400893 76.1554611,27.9552721 71.2298495,29.6889622 C71.2298495,29.6889622 71.0292589,30.7203981 70.204609,32.739379 C69.3799591,34.75836 65.3458609,44.7654828 61.9803977,46.6527911 C61.4232018,46.9600273 60.1527952,46.7186274 59.9522046,45.072719 C59.4172966,40.4202847 64.6103623,32.936888 65.6578906,32.344361 C66.683131,31.7737795 61.8466707,30.4351073 60.5094005,31.5104341 L60.5094005,31.5104341 Z" id="Shape" sketch:type="MSShapeGroup"></path>
                <path d="M62.4044492,48.8804872 C65.3273716,47.9953308 68.1596607,45.1628303 69.1113099,43.3482596 C70.7880251,40.0953098 74.3000636,32.9919296 74.7532299,32.3059334 C75.2063961,31.5978083 75.9994371,30.0487845 75.9994371,30.0487845 C75.9994371,30.0487845 76.1580453,27.9465381 71.1505581,29.694722 C71.1505581,29.694722 70.9466333,30.7347808 70.1082757,32.7706405 C69.2699181,34.8065002 65.1687634,44.8972833 61.7473581,46.8003696 C61.1809003,47.0880454 60.1159596,49.5664834 62.4044492,48.8804872 L62.4044492,48.8804872 Z" id="Shape" sketch:type="MSShapeGroup"></path>
                <path d="M81.0141606,26.2248381 C81.0141606,26.2248381 85.4002347,25.4343916 85.954032,26.817673 C86.5078292,28.1789976 81.922388,35.9956356 79.4856802,39.6624293 C77.0489723,43.3292229 70.7135319,50.553026 67.0584701,44.9320729 C66.4382172,43.9659715 70.9572027,29.3427106 70.9572027,29.3427106 C70.9572027,29.3427106 75.298973,27.6300764 75.6977071,29.6940202 C75.4761882,30.1112003 72.906569,37.0056506 71.9318858,39.5306882 C69.0299883,47.1936282 73.704037,41.1774518 74.302138,40.4528758 C74.9223909,39.7282998 79.6628953,33.624296 81.723021,27.7837744 C82.4097296,26.0052696 81.0141606,26.2248381 81.0141606,26.2248381 L81.0141606,26.2248381 Z" id="Shape" sketch:type="MSShapeGroup"></path>
                <path d="M84.9677199,26.8456239 C85.4009244,29.0694789 81.3721229,35.9590689 78.9894983,39.6000864 C77.7765258,41.4532989 75.2206195,44.2222164 72.8813154,45.7701939 C70.6286522,47.2527639 73.3361801,41.1044589 73.9210061,40.3849764 C74.5274923,39.6654939 80.3324322,31.0317039 80.4623935,26.2569564 C81.2638217,26.2351539 84.686137,25.4066589 84.9677199,26.8456239 L84.9677199,26.8456239 Z" id="Shape" sketch:type="MSShapeGroup"></path>
                <path d="M151.274813,62.2565086 C143.435262,57.4539242 174.025327,38.5326309 181.187107,34.3526037 C188.37148,30.1503423 190.495163,29.7056585 189.433321,29.4610825 C195.601038,28.0380945 194.968451,30.3282158 194.991044,30.706197 C151.410367,55.5417841 151.252221,60.9224574 154.415152,60.9446916 C157.623268,60.9446916 156.990682,64.5021615 151.274813,62.2565086 L151.274813,62.2565086 Z" id="Shape" sketch:type="MSShapeGroup"></path>
                <path d="M85.691238,26.1699698 C84.501841,25.793284 82.9533807,26.1256538 81.2927131,26.3693917 C85.0853188,27.8318188 82.9533807,47.8847971 72.2712488,60.6477977 C52.4554453,86.0851669 5.62013171,83.4040504 6.98906037,76.8231283 C8.29066468,72.192109 14.5967131,67.1179299 36.1853915,60.7807456 C36.1853915,60.7807456 74.8295745,47.9512711 123.0787,45.0485748 C171.305383,42.1680365 197.876064,49.0591704 201.713553,49.856858 C205.551042,50.6545455 210.353513,51.7624449 206.695556,48.4165888 C205.012447,46.7547398 202.58877,45.1372067 202.58877,45.1372067 C202.58877,45.1372067 202.992716,46.355896 201.264724,45.8684203 C201.466697,45.8019463 123.774385,25.0620704 16.2349392,64.5476034 C3.28622054,69.3558866 2.11926495,75.4936491 2.00705768,76.8009703 C1.53578716,82.9165747 24.7178087,91.5581897 56.001195,77.0890241 C86.2522744,63.1073343 88.855483,27.1227632 85.691238,26.1699698 L85.691238,26.1699698 Z" id="Shape" sketch:type="MSShapeGroup"></path>
                <path d="M71.3092173,51.8686328 C76.8784903,50.7386319 82.9580951,49.6307879 89.4592784,48.6337283 C99.4662191,47.1049036 93.5419327,45.0221569 90.0583635,45 C84.5556555,45.8862752 78.8754408,46.9498054 73.0620961,48.1684338 C66.8049846,49.6307879 64.0980073,52.6662805 71.3092173,51.8686328 L71.3092173,51.8686328 Z" id="Shape" sketch:type="MSShapeGroup"></path>
                <path d="M80.7223467,42.5204343 C79.6452118,46.4549498 78.0070693,50.6532318 75.740598,54.6097279 C74.5288213,56.7198591 74.3044182,63.2480777 79.0168832,54.7635916 C81.4404366,50.3894654 83.1234598,45.9933586 84.223035,42.014882 C86.6017078,33.4644543 82.9663776,34.3876368 80.7223467,42.5204343 L80.7223467,42.5204343 Z" id="Shape" sketch:type="MSShapeGroup"></path>
                <path d="M101.134534,7.03695694 C101.947206,10.5432944 88.0219641,28.6924501 88,39.1894101 C88,45.4302498 94.6990518,42.7619049 97.8618827,39.939193 C101.00275,37.1164811 100.102221,36.1461738 99.4213341,34.4701886 C89.3617745,46.6651863 91.7338977,35.0656044 103.265052,14.6229953 C108.163048,6.02254484 101.134534,7.03695694 101.134534,7.03695694 L101.134534,7.03695694 Z" id="Shape" sketch:type="MSShapeGroup"></path>
                <path d="M100.94462,23.4909245 C100.94462,23.4909245 100.056562,23.8501386 99.4793248,24.8604282 C98.879886,25.8707178 96.2823178,32.6508834 96.0159006,36.4001803 C95.8160877,39.3861473 97.5033969,42.7088775 100.855814,42.978288 C108.004677,43.53956 113,33.0325484 113,33.0325484 C113,33.0325484 112.200748,27.4647302 109.580979,31.6405938 C106.961209,35.7940066 100.300778,43.4722074 99.5015262,39.1840894 C98.9020874,36.1307698 97.6144041,34.2673467 99.8123463,30.5629516 C102.03249,26.8585565 103.808605,25.2869949 103.431181,24.4338615 C103.053756,23.5358263 105.451511,22.3010279 100.94462,23.4909245 L100.94462,23.4909245 Z" id="Shape" sketch:type="MSShapeGroup"></path>
                <path d="M107.012735,24.2087215 C108.458417,25.6819643 108.458417,27.3337819 106.056719,31.5972572 C103.655021,35.8830543 100.343942,33.383006 101.113418,32.11066 C101.906212,30.8383139 103.981465,27.6462879 103.328577,26.7534135 C102.675688,25.8605391 106.056719,23.2488815 107.012735,24.2087215 L107.012735,24.2087215 Z" id="Shape" sketch:type="MSShapeGroup"></path>
                <path d="M95.850369,41.9871134 C95.850369,41.9871134 102.622218,38.2663837 105.963295,32.8049618 C109.326796,27.3000225 103.429458,29.3888532 103.429458,29.3888532 C103.429458,29.3888532 100.940467,34.0887223 98.4514765,36.5256915 C97.1957694,37.744176 96.3212592,38.6362808 94.729202,39.6589375 C93.4062249,40.5292837 93.9443851,42.1611827 95.850369,41.9871134 L95.850369,41.9871134 Z" id="Shape" sketch:type="MSShapeGroup"></path>
                <path d="M99.8080416,25.2081262 C97.21528,28.7270578 95.7596945,33.2796755 96.0326168,36.9525603 C96.2373085,39.8556788 98.0113033,42.736804 101.559293,42.9787305 C108.882707,43.5285636 114,33.2356888 114,33.2356888 C114,33.2356888 113.181233,27.7813449 110.497497,31.8721028 C102.082394,41.7910911 100.581321,39.6577389 99.694324,36.8865803 C98.7845831,34.0934284 100.171938,26.8576254 108.200402,25.4060661 C107.904736,23.7345736 102.787443,21.0513883 99.8080416,25.2081262 L99.8080416,25.2081262 Z" id="Shape" sketch:type="MSShapeGroup"></path>
                <path d="M119.960179,40.0378094 C116.96017,42.3984531 108.271252,45.4494737 109.049033,30.3948027 C109.826813,15.3401317 118.093507,6.14252943 118.093507,6.14252943 C118.093507,6.14252943 121.160183,5.9198272 122.560188,6.03117831 C123.960192,6.14252943 126.493534,6.96652769 125.915754,9.70576517 C124.337971,17.1885602 117.537949,28.034159 112.515711,34.9379282 C112.426822,33.2008508 112.715711,29.4594533 113.493492,26.5865945 C119.071288,17.767586 122.471299,8.16911975 121.471295,9.52760338 C111.715708,23.1347099 111.604597,36.3409523 113.404602,38.6125151 C114.271272,39.703756 116.87128,39.302892 125.160196,30.1052898 C126.293533,31.820097 125.071307,35.0715496 125.071307,35.0715496 C125.071307,35.0715496 121.737963,38.6570555 119.960179,40.0378094 L119.960179,40.0378094 Z" id="Shape" sketch:type="MSShapeGroup"></path>
                <path d="M125.480127,38.7264891 C119.108494,29.6402118 135.381689,6.67833856 135.204083,5.13411902 C137.091152,4.39557924 143.662592,6.67833856 140.931892,12.6985568 C138.800614,17.3983554 133.672227,25.3432531 127.633606,32.6391309 C127.789012,31.3634713 128.166425,28.5659721 129.298667,25.3432531 C130.364306,23.8437935 131.518748,22.142914 132.695391,20.2629946 C138.378799,11.2662372 139.799651,5.26839898 134.826669,13.7280365 C133.938637,15.227496 128.03322,24.6494733 127.522602,33.8700305 C127.21179,39.5321689 128.721446,40.1364287 134.604661,32.8405508 C136.025513,31.0949114 139.266831,26.7084327 140.110462,25.1194531 C142.24174,21.0462943 142.485949,25.410393 141.264905,28.0736122 C139.666446,31.5872712 139.200229,33.2881507 136.669336,35.9513699 C134.138444,38.6145891 129.209864,44.0976875 125.480127,38.7264891 L125.480127,38.7264891 Z" id="Shape" sketch:type="MSShapeGroup"></path>
                <path d="M142.686798,18.2743508 C142.686798,18.2743508 142.459091,19.9952557 139.931548,24.2863435 C137.404004,28.5774312 135.741745,33.4719531 138.223748,35.9303888 C140.70575,38.3888244 142.504633,38.9252104 145.054947,36.0644853 C147.628032,33.2037601 152,27.6611051 152,27.6611051 C152,27.6611051 149.26752,24.7109823 147.87851,26.2307426 C146.51227,27.7505028 142.390779,35.8633405 141.001769,35.4610511 C140.295878,35.2599063 139.817694,33.0696636 142.299697,29.0020701 C144.781699,24.9344765 150.702072,17.7603142 146.694435,18.0061578 L142.686798,18.2743508 L142.686798,18.2743508 Z" id="Shape" sketch:type="MSShapeGroup"></path>
                <path d="M145.002501,12.7772782 C145.002501,12.7772782 147.939097,12.434348 149.836589,3.70105848 C150.491676,0.637548551 150.672389,-1.39717073 151.892206,1.16337488 C153.112023,3.72392049 153.315325,5.46143359 152.547293,8.95932179 C151.77926,12.45721 150.243195,17.7154733 147.532491,15.4521339 C144.821788,13.1659324 145.002501,12.7772782 145.002501,12.7772782 L145.002501,12.7772782 Z" id="Shape" sketch:type="MSShapeGroup"></path>
                <path d="M147,27.5321617 C150.427683,21.940223 150.471911,22.0062695 152.285265,19.4084397 C153.191943,18.1315403 158.963718,20.1129359 158.565665,21.7200679 C159.251201,21.0155717 161.506837,19.7386723 164.624923,20.8174322 C167.145928,21.6760369 166.371935,22.2044091 165.177775,26.0351073 C163.983614,29.8658055 159.406,39.2223958 163.408648,36.8887521 C167.411297,34.5330929 167.013244,35.3916977 166.969015,36.7786746 C166.924787,38.1656515 165.90754,40.7854968 161.68375,39.7727835 C155.447579,38.2757291 161.750092,25.6168126 160.843415,25.1324715 C154.076506,28.6549526 155.469693,41.0056519 151.732413,37.4391398 C150.095971,35.8760388 149.786374,35.2596046 149.786374,35.2596046 C149.786374,35.2596046 151.046877,31.0986738 151.798756,29.1172782 C152.550634,27.1358826 154.297647,24.8242544 150.759394,29.0512317 C148.946039,31.2307669 147,27.5321617 147,27.5321617 L147,27.5321617 Z" id="Shape" sketch:type="MSShapeGroup"></path>
                <path d="M173.251926,21 C169.592485,22.9763253 158.772288,34.0257803 167.039913,39.9772144 C175.307537,45.9286484 181,23.9644879 181,23.9644879 L177.656808,24.0992374 C177.656808,24.0992374 171.015601,39.9322979 168.395261,38.6521781 C165.774921,37.3945165 168.982579,28.9053011 176.143335,23.4254901 C177.114668,22.9763253 174.833165,21.2694989 173.251926,21 L173.251926,21 Z" id="Shape" sketch:type="MSShapeGroup"></path>
                <path d="M164.177015,36.5237679 C164.177015,36.5237679 171.004522,33.1062239 174.772952,26.8664501 C177.43302,22.456716 175.038959,21.3101851 173.398583,21.0235524 C172.711399,20.8912603 178.408378,21.3101851 179.561074,22.4346673 C180.647268,23.5371008 183.684179,26.0286006 175.327133,32.7093479 C168.920803,37.8246395 165.440547,41.2862808 161.317442,39.5444358 C157.194337,37.8246395 164.066179,37.9569315 164.066179,37.9569315 L164.177015,36.5237679 L164.177015,36.5237679 Z" id="Shape" sketch:type="MSShapeGroup"></path>
                <path d="M177.209252,22 C177.209252,22 180.250599,22.9576754 180.541316,23.5590064 C182.106715,26.7883769 179.624439,35.7860712 173.720649,49.1712549 C168.599557,60.7747171 158.715181,67.188915 151,62.4005381 C152.49831,61.9105646 151,61.0642469 154.130798,61.0642469 C157.283959,61.1087899 171.148922,59.527512 177.209252,22 L177.209252,22 Z" id="Shape" sketch:type="MSShapeGroup"></path>
                <path d="M43.0076314,14.8843087 C43.0076314,14.8843087 30.5307023,29.363223 28.2600847,43.5340753 C25.9894671,57.7049276 39.2691398,54.9323696 41.5856285,54.492281 C43.9250527,54.0521924 48.4892235,52.6879178 48.4892235,52.6879178 C48.4892235,52.6879178 43.3975355,51.4556698 42.7094695,52.0497894 C40.8975625,53.6561127 31.2646393,54.8443519 32.3655448,46.5266777 C33.3517727,39.2432117 34.8425822,34.0941753 48.9938052,15.3023928 C49.2231605,12.6398569 43.0076314,14.8843087 43.0076314,14.8843087 L43.0076314,14.8843087 Z" id="Shape" sketch:type="MSShapeGroup"></path>
                <path d="M16.2776713,30.3411078 C16.2776713,30.3411078 13.3724694,37.5039051 26.3564871,34.0666494 C39.3405047,30.6293937 77.8902989,21.8477599 111.456555,19.718879 C115.635576,17.1021295 115.926096,14.773666 113.333762,15.0176003 C110.741428,15.2615345 65.5767125,18.3439767 32.5021064,27.9239409 C16.0318465,32.6917471 16.2776713,30.3411078 16.2776713,30.3411078 L16.2776713,30.3411078 Z" id="Shape" sketch:type="MSShapeGroup"></path>
                <path d="M41.8572077,47.6868061 C43.4440887,53.0516763 47.9873506,50.3032797 48.748184,46.785332 C49.2916364,44.1248841 49.5117343,39.6685743 46.8814247,37.711716 C44.2511152,35.7548576 47.5607405,35.0498762 47.9275706,35.0498762 C48.2944007,35.0498762 49.9220411,34.8682843 49.900303,35.1980919 C49.8785649,35.5278995 52.3784459,36.2974506 52.8349459,40.9587312 C53.1392793,44.1028969 53.5523031,48.7861647 48.7047078,52.0622535 C44.4005649,54.9645603 38.7703981,50.5451386 38.1399933,46.7633448 C37.6834933,44.0589226 38.29216,39.7274495 40.7268267,36.2095019 C43.7701601,34.3405922 46.5961125,35.3080278 46.5961125,35.3080278 C44.9440173,36.9350786 40.2485886,42.3219359 41.8572077,47.6868061 Z" id="Shape" sketch:type="MSShapeGroup"></path>
            </g>
        </g>
    </g>
</svg>